<?xml version="1.0" encoding="utf-8"?><svg viewBox="0 0 800 800" xmlns="http://www.w3.org/2000/svg" xmlns:xlink="http://www.w3.org/1999/xlink"><style>:root>svg{display:none}:root>svg:target{display:block}</style><svg fill="inherit" viewBox="0 0 40 40" id="Favourites" xmlns="http://www.w3.org/2000/svg"><circle cx="20" cy="20" r="19.5" stroke="inherit"/><path class="bpath" d="m20.268 24.652-.268-.17-.268.17-5.165 3.281 1.371-6.225.062-.282-.213-.195-4.613-4.215 6.061-.55.305-.027.114-.284L20 10.337l2.346 5.818.114.284.305.027 6.06.55-4.622 4.215-.214.195.063.282 1.38 6.224-5.164-3.28Z" stroke="inherit"/></svg><svg fill="inherit" viewBox="0 0 20 20" id="Vector" xmlns="http://www.w3.org/2000/svg"><path d="m10.268 15.652-.268-.17-.268.17-5.165 3.281 1.371-6.225.062-.282-.213-.195-4.613-4.214 6.061-.55.304-.028.115-.284L10 1.337l2.346 5.818.114.284.305.027 6.06.55-4.622 4.214-.214.196.063.282 1.38 6.224-5.164-3.28Z" stroke="inherit"/></svg><svg viewBox="0 0 24 24" fill="inherit" id="cart-svgrepo-com" xmlns="http://www.w3.org/2000/svg"><path fill-rule="evenodd" clip-rule="evenodd" d="M1 1a1 1 0 0 0 0 2h2.206l2.78 11.909a4 4 0 0 0 3.779 3.09V18h7.822a4 4 0 0 0 3.943-3.325l1.256-7.338A2 2 0 0 0 20.814 5H5.727l-.753-3.227A1 1 0 0 0 4 1H1Zm5.194 6 1.739 7.454A2 2 0 0 0 9.88 16h7.706a2 2 0 0 0 1.972-1.663L20.814 7H6.194Z"/><path d="M8 23a2 2 0 1 0 0-4 2 2 0 0 0 0 4ZM19 23a2 2 0 1 0 0-4 2 2 0 0 0 0 4Z"/></svg></svg>